<svg xmlns="http://www.w3.org/2000/svg" viewBox="0 0 14 14"><defs><style>.cls-1{fill:#42a048;}.cls-2{fill:#cbe5ca;}.cls-3{fill:#fff;}.cls-4{fill:#91c691;}</style></defs><title>java</title><g id="图层_2" data-name="图层 2"><g id="图层_1-2" data-name="图层 1"><rect class="cls-1" y="8.74" width="14" height="5.26" rx="0.39" ry="0.39"/><polygon class="cls-2" points="1.44 0 1.44 8.74 12.56 8.74 12.56 2.65 9.95 0 1.44 0"/><path class="cls-1" d="M10.15,4.43H3.85a.22.22,0,0,1,0-.45h6.31a.22.22,0,0,1,0,.45Z"/><path class="cls-1" d="M10.15,6.7H3.85a.22.22,0,0,1,0-.45h6.31a.22.22,0,0,1,0,.45Z"/><path class="cls-3" d="M2.42,12.23l.33,0a.73.73,0,0,0,.12.44.37.37,0,0,0,.29.12.43.43,0,0,0,.24-.06.33.33,0,0,0,.14-.18,1.2,1.2,0,0,0,0-.35V10.21h.37v1.92a1.43,1.43,0,0,1-.08.55.61.61,0,0,1-.27.3.86.86,0,0,1-.43.1.71.71,0,0,1-.56-.21A.9.9,0,0,1,2.42,12.23Z"/><path class="cls-3" d="M4.23,13l1.06-2.82h.39L6.81,13H6.39l-.32-.85H4.92l-.3.85ZM5,11.87H6l-.29-.78q-.13-.36-.2-.59a3.67,3.67,0,0,1-.15.54Z"/><path class="cls-3" d="M7.6,13,6.53,10.21h.4l.72,2.05q.09.25.14.46.06-.23.15-.46l.75-2.05h.37L8,13Z"/><path class="cls-3" d="M8.8,13l1.06-2.82h.39L11.38,13H11l-.32-.85H9.49l-.3.85Zm.8-1.16h.94l-.29-.78q-.13-.36-.2-.59a3.67,3.67,0,0,1-.15.54Z"/><polygon class="cls-4" points="12.56 2.65 9.95 0 9.95 2.65 12.56 2.65"/></g></g></svg>