<svg xmlns="http://www.w3.org/2000/svg" viewBox="0 0 14 14"><defs><style>.cls-1{fill:#e2472d;}.cls-2{fill:#f7d7d5;}.cls-3{fill:#ea8073;}.cls-4{fill:#fff;}</style></defs><title>shell</title><g id="图层_2" data-name="图层 2"><g id="图层_1-2" data-name="图层 1"><rect class="cls-1" y="8.74" width="14" height="5.26" rx="0.39" ry="0.39"/><polygon class="cls-2" points="1.44 0 1.44 8.74 12.56 8.74 12.56 2.65 9.95 0 1.44 0"/><polygon class="cls-3" points="12.56 2.65 9.95 0 9.95 2.65 12.56 2.65"/><path class="cls-1" d="M10.15,4.43H3.85a.22.22,0,0,1,0-.45h6.31a.22.22,0,0,1,0,.45Z"/><path class="cls-1" d="M10.15,6.7H3.85a.22.22,0,0,1,0-.45h6.31a.22.22,0,0,1,0,.45Z"/><path class="cls-4" d="M1.19,12.12l.34,0a.79.79,0,0,0,.11.35.62.62,0,0,0,.28.22,1,1,0,0,0,.42.08,1,1,0,0,0,.37-.06A.51.51,0,0,0,3,12.5.41.41,0,0,0,3,12.26.37.37,0,0,0,3,12a.56.56,0,0,0-.25-.17l-.49-.14a2.46,2.46,0,0,1-.53-.18.75.75,0,0,1-.29-.26.66.66,0,0,1-.1-.35.73.73,0,0,1,.12-.4.74.74,0,0,1,.35-.28,1.29,1.29,0,0,1,.51-.1,1.35,1.35,0,0,1,.54.1.78.78,0,0,1,.36.3.87.87,0,0,1,.14.44L3,11a.58.58,0,0,0-.19-.4.73.73,0,0,0-.48-.14.76.76,0,0,0-.48.12.38.38,0,0,0-.15.3.32.32,0,0,0,.11.25,1.43,1.43,0,0,0,.55.2,3.58,3.58,0,0,1,.61.18.84.84,0,0,1,.36.29.71.71,0,0,1,.11.4.78.78,0,0,1-.13.42A.83.83,0,0,1,2.9,13a1.24,1.24,0,0,1-.53.11A1.55,1.55,0,0,1,1.74,13a.88.88,0,0,1-.4-.34A1,1,0,0,1,1.19,12.12Z"/><path class="cls-4" d="M3.9,13V10.21h.37v1.16H5.7V10.21h.37V13H5.7V11.7H4.27V13Z"/><path class="cls-4" d="M6.68,13V10.21h2v.33H7v.86H8.57v.33H7v1H8.74V13Z"/><path class="cls-4" d="M9.23,13V10.21h.37V12.7h1.36V13Z"/><path class="cls-4" d="M11.37,13V10.21h.37V12.7h1.36V13Z"/></g></g></svg>